# xmcd
# 
# Track frame offsets:
#     150
#     14525
#     34387
#     51200
#     69382
#     90900
#     105575
#     124792
#     156275
#     181312
#     195575
#     233200
#     253962
#     275025
#     288812
# 
# Disc length: 4168
# 
# Revision: 2
# Processed by: cddbd v1.5.2PL0 Copyright (c) Steve Scherf et al.
# Submitted via: fre:ac v1.0.17
# 
DISCID=d310460f
DTITLE=陳永淘 - 阿淘的歌
DYEAR=2000
DGENRE=Country
TTITLE0=春水
TTITLE1=頭擺\介你 (以前的你)
TTITLE2=大目新娘
TTITLE3=仰葛煞 (怎麼辦)
TTITLE4=盲神來了
TTITLE5=想問
TTITLE6=打孔翹 (失去平衡東倒西歪)
TTITLE7=日出部落
TTITLE8=阿婆
TTITLE9=無奈何
TTITLE10=藍色的拖拉牯 (藍色的卡車)
TTITLE11=轉年 (回家過年)
TTITLE12=風平浪靜
TTITLE13=發夢
TTITLE14=看天河 (看銀河)
EXTD=
EXTT0=
EXTT1=
EXTT2=
EXTT3=
EXTT4=
EXTT5=
EXTT6=
EXTT7=
EXTT8=
EXTT9=
EXTT10=
EXTT11=
EXTT12=
EXTT13=
EXTT14=
PLAYORDER=
